<svg width="21" height="32" viewBox="0 0 21 32" fill="none" xmlns="http://www.w3.org/2000/svg">
<path d="M6.35233 0H9.26142V7.27273H6.35233V0Z" fill="#BBBBBB"/>
<path d="M12.1705 0H15.0796V7.27273H12.1705V0Z" fill="#BBBBBB"/>
<path d="M6.35233 24.7273H9.26142V32H6.35233V24.7273Z" fill="#BBBBBB"/>
<path d="M12.1705 24.7273H15.0796V32H12.1705V24.7273Z" fill="#BBBBBB"/>
<path d="M0.53418 16C0.53418 10.1029 5.38988 5.81816 10.716 5.81816C15.8949 5.81816 19.4377 9.49338 20.466 13.0909H15.7501C15.0862 11.9195 13.4518 10.1818 10.716 10.1818C7.98024 10.1818 4.89782 12.5057 4.89782 16C4.89782 18.9914 7.28418 21.8125 10.716 21.8182C13.5285 21.8228 15.216 19.892 15.7671 18.9091H20.466C19.4593 22.4688 15.841 26.1704 10.716 26.1818C5.62509 26.1818 0.53418 21.897 0.53418 16Z" fill="#BBBBBB"/>
</svg>
