<svg width="49" height="48" viewBox="0 0 49 48" fill="none" xmlns="http://www.w3.org/2000/svg">
<path d="M6.12598 28L7.12598 28.14L16.266 19C15.906 17.7 16.246 16.22 17.306 15.18C18.866 13.6 21.386 13.6 22.946 15.18C24.006 16.22 24.346 17.7 23.986 19L29.126 24.14L30.126 24C30.486 24 30.826 24 31.126 24.14L38.266 17C38.126 16.7 38.126 16.36 38.126 16C38.126 14.9391 38.5474 13.9217 39.2976 13.1716C40.0477 12.4214 41.0651 12 42.126 12C43.1868 12 44.2043 12.4214 44.9544 13.1716C45.7045 13.9217 46.126 14.9391 46.126 16C46.126 17.0609 45.7045 18.0783 44.9544 18.8284C44.2043 19.5786 43.1868 20 42.126 20C41.766 20 41.426 20 41.126 19.86L33.986 27C34.126 27.3 34.126 27.64 34.126 28C34.126 29.0609 33.7045 30.0783 32.9544 30.8284C32.2043 31.5786 31.1868 32 30.126 32C29.0651 32 28.0477 31.5786 27.2976 30.8284C26.5474 30.0783 26.126 29.0609 26.126 28L26.266 27L21.126 21.86C20.486 22 19.766 22 19.126 21.86L9.98598 31L10.126 32C10.126 33.0609 9.70455 34.0783 8.9544 34.8284C8.20426 35.5786 7.18684 36 6.12598 36C5.06511 36 4.04769 35.5786 3.29755 34.8284C2.5474 34.0783 2.12598 33.0609 2.12598 32C2.12598 30.9391 2.5474 29.9217 3.29755 29.1716C4.04769 28.4214 5.06511 28 6.12598 28Z" fill="#6C7AF5"/>
</svg>
