<svg width="49" height="48" viewBox="0 0 49 48" fill="none" xmlns="http://www.w3.org/2000/svg">
<g clip-path="url(#clip0_493_35)">
<path d="M24.625 10C22.7685 10 20.988 10.7375 19.6753 12.0503C18.3625 13.363 17.625 15.1435 17.625 17C17.625 18.8565 18.3625 20.637 19.6753 21.9497C20.988 23.2625 22.7685 24 24.625 24C26.4815 24 28.262 23.2625 29.5747 21.9497C30.8875 20.637 31.625 18.8565 31.625 17C31.625 15.1435 30.8875 13.363 29.5747 12.0503C28.262 10.7375 26.4815 10 24.625 10ZM24.625 14C25.4206 14 26.1837 14.3161 26.7463 14.8787C27.3089 15.4413 27.625 16.2044 27.625 17C27.625 17.7956 27.3089 18.5587 26.7463 19.1213C26.1837 19.6839 25.4206 20 24.625 20C23.8294 20 23.0663 19.6839 22.5037 19.1213C21.9411 18.5587 21.625 17.7956 21.625 17C21.625 16.2044 21.9411 15.4413 22.5037 14.8787C23.0663 14.3161 23.8294 14 24.625 14ZM11.625 16C10.2989 16 9.02715 16.5268 8.08947 17.4645C7.15178 18.4021 6.625 19.6739 6.625 21C6.625 22.88 7.685 24.5 9.205 25.36C9.925 25.76 10.745 26 11.625 26C12.505 26 13.325 25.76 14.045 25.36C14.785 24.94 15.405 24.34 15.865 23.62C14.405 21.72 13.625 19.4 13.625 17C13.625 16.82 13.625 16.62 13.625 16.44C13.025 16.16 12.345 16 11.625 16ZM37.625 16C36.905 16 36.225 16.16 35.625 16.44C35.625 16.62 35.625 16.82 35.625 17C35.625 19.4 34.845 21.72 33.385 23.62C33.625 24 33.885 24.3 34.185 24.6C34.505 24.9 34.825 25.16 35.205 25.36C35.925 25.76 36.745 26 37.625 26C38.505 26 39.325 25.76 40.045 25.36C41.565 24.5 42.625 22.88 42.625 21C42.625 19.6739 42.0982 18.4021 41.1605 17.4645C40.2229 16.5268 38.9511 16 37.625 16ZM24.625 28C19.945 28 10.625 30.34 10.625 35V38H38.625V35C38.625 30.34 29.305 28 24.625 28ZM10.045 29.1C6.185 29.56 0.625 31.52 0.625 35V38H6.625V34.14C6.625 32.12 8.005 30.44 10.045 29.1ZM39.205 29.1C41.245 30.44 42.625 32.12 42.625 34.14V38H48.625V35C48.625 31.52 43.065 29.56 39.205 29.1ZM24.625 32C27.685 32 31.105 33 33.085 34H16.165C18.145 33 21.565 32 24.625 32Z" fill="#9CFFA6"/>
</g>
<defs>
<clipPath id="clip0_493_35">
<rect width="48" height="48" fill="white" transform="translate(0.625)"/>
</clipPath>
</defs>
</svg>
