<svg width="43" height="42" viewBox="0 0 43 42" fill="none" xmlns="http://www.w3.org/2000/svg">
<path d="M4.37549 0C2.15549 0 0.375488 1.78 0.375488 4V26C0.375488 28.22 2.15549 30 4.37549 30H8.37549V26H4.37549V4H26.3755V8H30.3755V4C30.3755 1.78 28.5955 0 26.3755 0H4.37549ZM16.3755 12C14.1555 12 12.3755 13.78 12.3755 16V20H16.3755V16H20.3755V12H16.3755ZM24.3755 12V16H26.3755V18H30.3755V12H24.3755ZM34.3755 12V16H38.3755V38H16.3755V34H12.3755V38C12.3755 40.22 14.1555 42 16.3755 42H38.3755C40.5955 42 42.3755 40.22 42.3755 38V16C42.3755 13.78 40.5955 12 38.3755 12H34.3755ZM26.3755 22V26H22.3755V30H26.3755C28.5955 30 30.3755 28.22 30.3755 26V22H26.3755ZM12.3755 24V30H18.3755V26H16.3755V24H12.3755Z" fill="#FEA757"/>
</svg>
